<svg width="18" height="16" viewBox="0 0 18 16" fill="none" xmlns="http://www.w3.org/2000/svg">
<path d="M17.25 1.25022C16.5318 1.75683 15.7366 2.1443 14.895 2.39772C14.4433 1.87835 13.843 1.51024 13.1753 1.34316C12.5076 1.17609 11.8046 1.21811 11.1616 1.46356C10.5185 1.709 9.96633 2.14602 9.57974 2.71551C9.19314 3.28499 8.99077 3.95947 9 4.64772V5.39772C7.68198 5.43189 6.37596 5.13958 5.19826 4.5468C4.02056 3.95403 3.00774 3.07919 2.25 2.00022C2.25 2.00022 -0.75 8.75022 6 11.7502C4.4554 12.7987 2.61537 13.3244 0.75 13.2502C7.5 17.0002 15.75 13.2502 15.75 4.62522C15.7493 4.41631 15.7292 4.20791 15.69 4.00272C16.4555 3.24784 16.9956 2.29475 17.25 1.25022Z" fill="white" stroke="white" stroke-width="2" stroke-linecap="round" stroke-linejoin="round"/>
</svg>
