<svg width="30" height="12" viewBox="0 0 30 12" fill="none" xmlns="http://www.w3.org/2000/svg">
<path d="M2.358 12H0.936V0.731999H2.718L4.644 7.716L6.57 0.731999H8.352V12H6.93V3.756L5.382 9.552H3.906L2.358 3.774V12ZM11.8553 10.686H15.1133V12H10.2173V0.731999H14.9873V2.046H11.8553V5.52H14.4473V6.834H11.8553V10.686ZM20.4012 0.731999H21.8952V12H20.2572L17.8812 3.864V12H16.3872V0.731999H18.0972L20.4012 8.634V0.731999ZM27.46 0.731999H29.098V10.416C29.098 11.472 28.534 12 27.406 12H25.408C24.28 12 23.716 11.472 23.716 10.416V0.731999H25.354V10.164C25.354 10.38 25.39 10.524 25.462 10.596C25.534 10.656 25.678 10.686 25.894 10.686H26.92C27.148 10.686 27.292 10.656 27.352 10.596C27.424 10.524 27.46 10.38 27.46 10.164V0.731999Z" fill="black"/>
</svg>
